# xmcd
#
# Track frame offsets:
# 150
# 23773
# 48888
# 82559
# 108710
# 132983
# 154442
# 185993
# 206354
# 227849
# 254492
# 304213
#
# Disc length: 4353 seconds
#
# Revision: 0
# Processed by: cddbd v1.4PL0 Copyright (c) Steve Scherf et al.
# Submitted via: Audion 2.5.0 (http://www.panic.com/audion/)
#
DISCID=a110ff0c
DTITLE=Cafe´ Copacabana - Volume 2 CD 2
DYEAR=1900
DGENRE=
TTITLE0=summertime
TTITLE1=las sombras
TTITLE2=bossa mia
TTITLE3=power to the people
TTITLE4=solar discount
TTITLE5=night cruisin´
TTITLE6=dew
TTITLE7=jardim caburi
TTITLE8=a view to a dub
TTITLE9=piel canela
TTITLE10=twilight cruising
TTITLE11=siesta del sol
EXTD=
EXTT0=
EXTT1=
EXTT2=
EXTT3=
EXTT4=
EXTT5=
EXTT6=
EXTT7=
EXTT8=
EXTT9=
EXTT10=
EXTT11=
PLAYORDER=
